#Comment line ignore any data following # character 
#Hierarchical Translation and Rotation (.htr) file 
[Header]	
#Header keywords are followed by a single value 
FileType HTR		#Single word string
DataType HTRS		#Translation followed by rotation and scale data
FileVersion 1		#integer
NumSegments 84		#integer
NumFrames 2		#integer
DataFrameRate 30		#integer, data frame rate in this file
EulerRotationOrder ZYX
CalibrationUnits mm
RotationUnits Degrees
GlobalAxisofGravity Y
BoneLengthAxis Y
ScaleFactor 1.00
[SegmentNames&Hierarchy]
#CHILD	PARENT
MASTER GLOBAL
root MASTER
chest root
L_mid_tent01 root
R_mid_tent01 root
spine01 root
Bip01_Neck chest
L_humerus chest
R_humerus chest
weapon_bone chest
Bip01_Head Bip01_Neck
eye_left_bone Bip01_Head
eye_right_bone Bip01_Head
L_forearm L_humerus
L_front_hand L_forearm
L_weapon_bone L_forearm
L_front_hand01_01 L_front_hand
L_front_hand02_01 L_front_hand
L_front_hand03_01 L_front_hand
L_front_hand01_02 L_front_hand01_01
L_front_hand02_02 L_front_hand02_01
L_front_hand03_02 L_front_hand03_01
R_forearm R_humerus
R_front_hand R_forearm
R_weapon_bone R_forearm
R_front_hand01_01 R_front_hand
R_front_hand02_01 R_front_hand
R_front_hand03_01 R_front_hand
R_front_hand01_02 R_front_hand01_01
R_front_hand02_02 R_front_hand02_01
R_front_hand03_02 R_front_hand03_01
null_rope01_connect L_mid_tent01
Rope1_Seg01 null_rope01_connect
Rope1_Seg02 Rope1_Seg01
Rope1_Seg03 Rope1_Seg02
Rope1_Seg04 Rope1_Seg03
Rope1_Seg05 Rope1_Seg04
Rope1_Seg06 Rope1_Seg05
Rope1_Seg07 Rope1_Seg06
Rope1_Seg09 Rope1_Seg07
L_mid_hand01 Rope1_Seg09
L_mid_hand02 Rope1_Seg09
L_mid_hand03 Rope1_Seg09
null_rope02_connect R_mid_tent01
Rope2_Seg01 null_rope02_connect
Rope2_Seg02 Rope2_Seg01
Rope2_Seg03 Rope2_Seg02
Rope2_Seg04 Rope2_Seg03
Rope2_Seg05 Rope2_Seg04
Rope2_Seg06 Rope2_Seg05
Rope2_Seg07 Rope2_Seg06
Rope2_Seg09 Rope2_Seg07
R_mid_hand01 Rope2_Seg09
R_mid_hand02 Rope2_Seg09
R_mid_hand03 Rope2_Seg09
spine02 spine01
spine03 spine02
pelvis spine03
null_rope03_connect pelvis
null_rope04_connect pelvis
Rope3_Seg01 null_rope03_connect
Rope3_Seg02 Rope3_Seg01
Rope3_Seg03 Rope3_Seg02
Rope3_Seg04 Rope3_Seg03
Rope3_Seg05 Rope3_Seg04
Rope3_Seg06 Rope3_Seg05
Rope3_Seg07 Rope3_Seg06
Rope3_Seg08 Rope3_Seg07
Rope3_Seg09 Rope3_Seg08
R_rear_hand01 Rope3_Seg09
R_rear_hand02 Rope3_Seg09
R_rear_hand03 Rope3_Seg09
Rope4_Seg01 null_rope04_connect
Rope4_Seg02 Rope4_Seg01
Rope4_Seg03 Rope4_Seg02
Rope4_Seg04 Rope4_Seg03
Rope4_Seg05 Rope4_Seg04
Rope4_Seg06 Rope4_Seg05
Rope4_Seg07 Rope4_Seg06
Rope4_Seg08 Rope4_Seg07
Rope4_Seg09 Rope4_Seg08
L_rear_hand01 Rope4_Seg09
L_rear_hand02 Rope4_Seg09
L_rear_hand03 Rope4_Seg09
[BasePosition]
#SegmentName Tx, Ty, Tz, Rx, Ry, Rz, BoneLength
MASTER 0.000000 0.000000 0.000000 -90.000000 0.000000 0.000000 10.000000 
root 0.000000 0.000000 0.000000 0.000000 0.000000 0.000000 10.000000 
chest 0.000000 0.000000 0.000000 0.000000 0.000000 0.000000 10.000000 
L_mid_tent01 0.000000 0.000000 0.000000 0.000000 0.000000 0.000000 10.000000 
R_mid_tent01 0.000000 0.000000 0.000000 0.000000 0.000000 0.000000 10.000000 
spine01 0.000000 0.000000 0.000000 0.000000 0.000000 0.000000 10.000000 
Bip01_Neck 0.000000 0.000000 0.000000 0.000000 0.000000 0.000000 10.000000 
L_humerus 0.000000 0.000000 0.000000 0.000000 0.000000 0.000000 10.000000 
R_humerus 0.000000 0.000000 0.000000 0.000000 0.000000 0.000000 10.000000 
weapon_bone 0.000000 0.000000 0.000000 0.000000 0.000000 0.000000 10.000000 
Bip01_Head 0.000000 0.000000 0.000000 0.000000 0.000000 0.000000 10.000000 
eye_left_bone 0.000000 0.000000 0.000000 0.000000 0.000000 0.000000 10.000000 
eye_right_bone 0.000000 0.000000 0.000000 0.000000 0.000000 0.000000 10.000000 
L_forearm 0.000000 0.000000 0.000000 0.000000 0.000000 0.000000 10.000000 
L_front_hand 0.000000 0.000000 0.000000 0.000000 0.000000 0.000000 10.000000 
L_weapon_bone 0.000000 0.000000 0.000000 0.000000 0.000000 0.000000 10.000000 
L_front_hand01_01 0.000000 0.000000 0.000000 0.000000 0.000000 0.000000 10.000000 
L_front_hand02_01 0.000000 0.000000 0.000000 0.000000 0.000000 0.000000 10.000000 
L_front_hand03_01 0.000000 0.000000 0.000000 0.000000 0.000000 0.000000 10.000000 
L_front_hand01_02 0.000000 0.000000 0.000000 0.000000 0.000000 0.000000 10.000000 
L_front_hand02_02 0.000000 0.000000 0.000000 0.000000 0.000000 0.000000 10.000000 
L_front_hand03_02 0.000000 0.000000 0.000000 0.000000 0.000000 0.000000 10.000000 
R_forearm 0.000000 0.000000 0.000000 0.000000 0.000000 0.000000 10.000000 
R_front_hand 0.000000 0.000000 0.000000 0.000000 0.000000 0.000000 10.000000 
R_weapon_bone 0.000000 0.000000 0.000000 0.000000 0.000000 0.000000 10.000000 
R_front_hand01_01 0.000000 0.000000 0.000000 0.000000 0.000000 0.000000 10.000000 
R_front_hand02_01 0.000000 0.000000 0.000000 0.000000 0.000000 0.000000 10.000000 
R_front_hand03_01 0.000000 0.000000 0.000000 0.000000 0.000000 0.000000 10.000000 
R_front_hand01_02 0.000000 0.000000 0.000000 0.000000 0.000000 0.000000 10.000000 
R_front_hand02_02 0.000000 0.000000 0.000000 0.000000 0.000000 0.000000 10.000000 
R_front_hand03_02 0.000000 0.000000 0.000000 0.000000 0.000000 0.000000 10.000000 
null_rope01_connect 0.000000 0.000000 0.000000 0.000000 0.000000 0.000000 10.000000 
Rope1_Seg01 0.000000 0.000000 0.000000 0.000000 0.000000 0.000000 10.000000 
Rope1_Seg02 0.000000 0.000000 0.000000 0.000000 0.000000 0.000000 10.000000 
Rope1_Seg03 0.000000 0.000000 0.000000 0.000000 0.000000 0.000000 10.000000 
Rope1_Seg04 0.000000 0.000000 0.000000 0.000000 0.000000 0.000000 10.000000 
Rope1_Seg05 0.000000 0.000000 0.000000 0.000000 0.000000 0.000000 10.000000 
Rope1_Seg06 0.000000 0.000000 0.000000 0.000000 0.000000 0.000000 10.000000 
Rope1_Seg07 0.000000 0.000000 0.000000 0.000000 0.000000 0.000000 10.000000 
Rope1_Seg09 0.000000 0.000000 0.000000 0.000000 0.000000 0.000000 10.000000 
L_mid_hand01 0.000000 0.000000 0.000000 0.000000 0.000000 0.000000 10.000000 
L_mid_hand02 0.000000 0.000000 0.000000 0.000000 0.000000 0.000000 10.000000 
L_mid_hand03 0.000000 0.000000 0.000000 0.000000 0.000000 0.000000 10.000000 
null_rope02_connect 0.000000 0.000000 0.000000 0.000000 0.000000 0.000000 10.000000 
Rope2_Seg01 0.000000 0.000000 0.000000 0.000000 0.000000 0.000000 10.000000 
Rope2_Seg02 0.000000 0.000000 0.000000 0.000000 0.000000 0.000000 10.000000 
Rope2_Seg03 0.000000 0.000000 0.000000 0.000000 0.000000 0.000000 10.000000 
Rope2_Seg04 0.000000 0.000000 0.000000 0.000000 0.000000 0.000000 10.000000 
Rope2_Seg05 0.000000 0.000000 0.000000 0.000000 0.000000 0.000000 10.000000 
Rope2_Seg06 0.000000 0.000000 0.000000 0.000000 0.000000 0.000000 10.000000 
Rope2_Seg07 0.000000 0.000000 0.000000 0.000000 0.000000 0.000000 10.000000 
Rope2_Seg09 0.000000 0.000000 0.000000 0.000000 0.000000 0.000000 10.000000 
R_mid_hand01 0.000000 0.000000 0.000000 0.000000 0.000000 0.000000 10.000000 
R_mid_hand02 0.000000 0.000000 0.000000 0.000000 0.000000 0.000000 10.000000 
R_mid_hand03 0.000000 0.000000 0.000000 0.000000 0.000000 0.000000 10.000000 
spine02 0.000000 0.000000 0.000000 0.000000 0.000000 0.000000 10.000000 
spine03 0.000000 0.000000 0.000000 0.000000 0.000000 0.000000 10.000000 
pelvis 0.000000 0.000000 0.000000 0.000000 0.000000 0.000000 10.000000 
null_rope03_connect 0.000000 0.000000 0.000000 0.000000 0.000000 0.000000 10.000000 
null_rope04_connect 0.000000 0.000000 0.000000 0.000000 0.000000 0.000000 10.000000 
Rope3_Seg01 0.000000 0.000000 0.000000 0.000000 0.000000 0.000000 10.000000 
Rope3_Seg02 0.000000 0.000000 0.000000 0.000000 0.000000 0.000000 10.000000 
Rope3_Seg03 0.000000 0.000000 0.000000 0.000000 0.000000 0.000000 10.000000 
Rope3_Seg04 0.000000 0.000000 0.000000 0.000000 0.000000 0.000000 10.000000 
Rope3_Seg05 0.000000 0.000000 0.000000 0.000000 0.000000 0.000000 10.000000 
Rope3_Seg06 0.000000 0.000000 0.000000 0.000000 0.000000 0.000000 10.000000 
Rope3_Seg07 0.000000 0.000000 0.000000 0.000000 0.000000 0.000000 10.000000 
Rope3_Seg08 0.000000 0.000000 0.000000 0.000000 0.000000 0.000000 10.000000 
Rope3_Seg09 0.000000 0.000000 0.000000 0.000000 0.000000 0.000000 10.000000 
R_rear_hand01 0.000000 0.000000 0.000000 0.000000 0.000000 0.000000 10.000000 
R_rear_hand02 0.000000 0.000000 0.000000 0.000000 0.000000 0.000000 10.000000 
R_rear_hand03 0.000000 0.000000 0.000000 0.000000 0.000000 0.000000 10.000000 
Rope4_Seg01 0.000000 0.000000 0.000000 0.000000 0.000000 0.000000 10.000000 
Rope4_Seg02 0.000000 0.000000 0.000000 0.000000 0.000000 0.000000 10.000000 
Rope4_Seg03 0.000000 0.000000 0.000000 0.000000 0.000000 0.000000 10.000000 
Rope4_Seg04 0.000000 0.000000 0.000000 0.000000 0.000000 0.000000 10.000000 
Rope4_Seg05 0.000000 0.000000 0.000000 0.000000 0.000000 0.000000 10.000000 
Rope4_Seg06 0.000000 0.000000 0.000000 0.000000 0.000000 0.000000 10.000000 
Rope4_Seg07 0.000000 0.000000 0.000000 0.000000 0.000000 0.000000 10.000000 
Rope4_Seg08 0.000000 0.000000 0.000000 0.000000 0.000000 0.000000 10.000000 
Rope4_Seg09 0.000000 0.000000 0.000000 0.000000 0.000000 0.000000 10.000000 
L_rear_hand01 0.000000 0.000000 0.000000 0.000000 0.000000 0.000000 10.000000 
L_rear_hand02 0.000000 0.000000 0.000000 0.000000 0.000000 0.000000 10.000000 
L_rear_hand03 0.000000 0.000000 0.000000 0.000000 0.000000 0.000000 10.000000 
#Beginning of Data. Separated by tabs
#Fr	Tx	Ty	Tz	Rx	Ry	Rz	SF
[MASTER]
9 -0.000207 1386.450195 2482.823486 0.001660 0.001660 0.001660 2843.704834
10 -0.000237 1588.385620 2774.646484 0.001660 0.001660 0.001660 3197.128662
[root]
9 -30.827042 -35.811462 1484.702271 -83.218544 -3.513982 -92.978554 1485.453979
10 -33.055550 -40.895077 1490.362549 -82.918228 -3.402019 -93.102272 1491.289917
[chest]
9 -84.512650 -34.090519 0.000000 -1.273457 -1.087616 -151.600662 91.129311
10 -84.512650 -34.090519 0.000000 -1.267454 -0.930984 -152.728958 91.129311
[L_mid_tent01]
9 27.299105 22.179258 -249.918701 3.325118 14.915477 80.934853 252.381699
10 27.299110 22.179277 -249.918701 2.588528 17.968876 80.116257 252.381699
[R_mid_tent01]
9 23.228794 24.509907 226.238495 157.927261 -40.790516 90.488297 228.744751
10 23.228794 24.509907 226.238495 158.695358 -40.540154 89.189339 228.744751
[spine01]
9 -0.361383 -0.195265 0.000000 0.001954 0.001300 22.722383 0.410763
10 -0.361383 -0.195265 0.000000 0.001954 0.001300 22.722383 0.410763
[Bip01_Neck]
9 165.484543 71.581718 0.000119 176.643677 -1.657967 43.431911 180.302734
10 165.484543 71.581718 0.000119 176.643677 -1.657967 43.431911 180.302734
[L_humerus]
9 -13.983130 -135.272980 -120.471481 -7.013537 63.954872 82.833733 181.680161
10 -13.983130 -135.272980 -120.471481 -6.996100 64.013924 82.857849 181.680161
[R_humerus]
9 -13.983309 -135.273102 125.287651 25.678438 -64.751801 70.046013 184.909012
10 -13.983309 -135.273102 125.287651 25.696659 -64.806236 70.025002 184.909012
[weapon_bone]
9 235.964890 -300.705902 0.000000 0.000000 -89.951546 -128.212341 382.234833
10 235.964890 -300.705902 0.000000 0.000000 -89.951546 -128.212341 382.234833
[Bip01_Head]
9 213.649292 185.146484 19.126776 4.972661 4.781317 -43.887043 283.356781
10 213.674011 185.076599 20.027485 4.962490 2.797846 -43.898743 283.391998
[eye_left_bone]
9 -24.626970 125.451866 -64.772606 0.000000 -90.000000 -99.840431 143.318359
10 -24.626970 125.451866 -64.772606 0.000000 -90.000000 -99.840431 143.318359
[eye_right_bone]
9 -24.626970 125.451866 64.327362 0.000000 -89.980217 80.156380 143.117676
10 -24.626970 125.451866 64.327362 0.000000 -89.965736 80.156380 143.117676
[L_forearm]
9 322.776093 0.000000 -0.000119 0.000430 -0.002308 -111.089806 322.776093
10 322.776093 0.000000 -0.000119 0.000429 -0.002308 -111.071800 322.776093
[L_front_hand]
9 241.149185 -0.042021 -3.300071 -178.667953 -1.835447 -27.422350 241.171753
10 241.149185 -0.042021 -3.300071 -178.667953 -1.835447 -27.422350 241.171753
[L_weapon_bone]
9 156.183838 0.000000 0.000000 0.000014 0.000007 0.000001 156.183838
10 156.183838 0.000000 0.000000 0.000014 0.000007 0.000001 156.183838
[L_front_hand01_01]
9 86.095154 20.947098 -0.655860 -0.306535 -0.513312 68.646957 88.609184
10 86.095154 20.947098 -0.655860 -0.291918 -0.522545 67.227623 88.609184
[L_front_hand02_01]
9 86.935165 -11.437475 24.513514 145.004028 -56.473930 -50.323566 91.046425
10 86.935165 -11.437475 24.513514 143.299133 -55.645813 -48.269917 91.046425
[L_front_hand03_01]
9 86.637497 -14.123976 -20.424902 -145.151382 54.687630 -52.198425 90.126129
10 86.637497 -14.123976 -20.424902 -143.556335 53.862476 -50.232788 90.126129
[L_front_hand01_02]
9 71.020905 -0.000179 0.000030 0.000316 -0.002326 -105.490036 71.020905
10 71.020905 -0.000179 0.000030 0.000316 -0.002326 -105.466431 71.020905
[L_front_hand02_02]
9 71.020927 -0.000119 0.000060 0.000316 -0.002326 -105.490036 71.020927
10 71.020927 -0.000119 0.000060 0.000316 -0.002326 -105.466431 71.020927
[L_front_hand03_02]
9 71.020905 -0.000060 0.000060 0.000316 -0.002326 -105.490036 71.020905
10 71.020905 -0.000060 0.000060 0.000316 -0.002326 -105.466431 71.020905
[R_forearm]
9 322.776428 -0.000060 0.000030 0.201123 0.068120 -109.746574 322.776428
10 322.776428 -0.000060 0.000030 0.201134 0.068088 -109.728432 322.776428
[R_front_hand]
9 238.847015 -0.006795 2.210259 -2.635298 -10.645461 -26.312506 238.857239
10 238.847015 -0.006795 2.210259 -2.635298 -10.645461 -26.312506 238.857239
[R_weapon_bone]
9 155.664093 0.002503 -0.000030 0.003487 0.001180 -90.988930 155.664078
10 155.664093 0.002503 -0.000030 0.003487 0.001180 -90.988930 155.664078
[R_front_hand01_01]
9 87.624611 14.231146 22.918642 -145.613251 -56.747215 51.157963 91.683487
10 87.624611 14.231146 22.918642 -143.671631 -55.829556 48.823868 91.683487
[R_front_hand02_01]
9 89.356956 14.367283 -19.491137 146.110458 55.128292 53.601925 92.579636
10 89.356956 14.367283 -19.491137 144.272369 54.223438 51.351048 92.579636
[R_front_hand03_01]
9 87.286232 -22.307278 -0.143439 0.113738 -0.439575 -69.369308 90.091743
10 87.286232 -22.307278 -0.143439 0.102142 -0.441771 -67.781387 90.091743
[R_front_hand01_02]
9 71.020905 0.000060 0.000119 0.002323 -0.000334 106.381714 71.020905
10 71.020905 0.000060 0.000119 0.002323 -0.000334 106.381714 71.020905
[R_front_hand02_02]
9 71.020844 -0.000030 -0.000119 0.002323 -0.000334 106.381714 71.020836
10 71.020844 -0.000030 -0.000119 0.002323 -0.000334 106.381714 71.020836
[R_front_hand03_02]
9 71.020905 0.000000 0.000030 0.002323 -0.000334 106.381714 71.020905
10 71.020905 0.000000 0.000030 0.002323 -0.000334 106.381714 71.020905
[null_rope01_connect]
9 328.732483 0.000000 -0.000238 -128.104141 -78.522537 140.593292 328.732483
10 328.732483 0.000000 -0.000238 -136.706726 -76.463043 149.780502 328.732483
[Rope1_Seg01]
9 0.000064 -0.000025 0.000102 -80.095604 69.264000 -77.859253 0.000123
10 0.000062 -0.000024 0.000095 -136.532867 67.682396 -123.677216 0.000116
[Rope1_Seg02]
9 139.999863 -0.000179 0.000000 -3.245544 0.223802 6.609094 139.999863
10 139.999863 -0.000179 0.000000 -4.467084 -3.351787 11.435361 139.999863
[Rope1_Seg03]
9 139.999924 0.000060 -0.000060 -3.586200 -0.210619 9.852271 139.999924
10 139.999924 0.000060 -0.000060 -4.895684 -4.275211 17.884846 139.999924
[Rope1_Seg04]
9 139.999924 -0.000060 -0.000119 -5.106750 4.211166 21.966856 139.999924
10 139.999924 -0.000060 -0.000119 -2.607111 -4.001186 20.862585 139.999924
[Rope1_Seg05]
9 139.999832 0.000119 -0.000060 -0.636337 -10.051957 8.878958 139.999832
10 139.999832 0.000119 -0.000060 -2.797795 -25.587839 0.490033 139.999832
[Rope1_Seg06]
9 139.999954 0.000119 -0.000060 1.628260 -26.154934 -17.065435 139.999954
10 139.999954 0.000119 -0.000060 -11.297548 -32.089336 -6.796112 139.999954
[Rope1_Seg07]
9 139.999985 0.000060 0.000000 -1.657942 -14.031995 -5.971834 139.999985
10 139.999985 0.000060 0.000000 -8.745675 -14.538686 -4.532973 139.999985
[Rope1_Seg09]
9 121.602913 0.000119 -0.000089 -89.793175 -1.359789 0.847147 121.602913
10 121.602913 0.000119 -0.000089 -89.793175 -1.359789 0.847147 121.602913
[L_mid_hand01]
9 103.859421 1.038730 8.195221 109.056198 -40.604698 -13.201401 104.187431
10 103.859421 1.038730 8.195221 109.301483 -41.408253 -13.576799 104.187431
[L_mid_hand02]
9 105.572853 -4.139662 -10.864139 -146.713593 31.476528 -37.902313 106.211075
10 105.572853 -4.139662 -10.864139 -147.153671 31.943630 -38.737034 106.211075
[L_mid_hand03]
9 104.641464 17.579376 -3.913581 -14.267233 12.322316 43.898396 106.179977
10 104.641464 17.579376 -3.913581 -14.087292 12.528420 44.741467 106.179977
[null_rope02_connect]
9 328.732849 0.000179 -0.000119 -150.249573 40.198353 15.710711 328.732849
10 328.732849 0.000179 -0.000119 -150.249969 40.533558 14.766788 328.732849
[Rope2_Seg01]
9 0.000051 0.000102 0.000000 122.509331 73.104858 -118.044182 0.000114
10 0.000052 0.000095 0.000000 -147.101776 66.831306 -35.754589 0.000109
[Rope2_Seg02]
9 139.999741 -0.000060 -0.000119 1.742774 -1.264714 -3.945911 139.999756
10 139.999741 -0.000060 -0.000119 1.280287 -6.721434 1.090811 139.999756
[Rope2_Seg03]
9 140.000107 0.000030 0.000000 2.111458 -1.626544 -4.595626 140.000107
10 140.000107 0.000030 0.000000 1.050754 -7.245432 1.198892 140.000107
[Rope2_Seg04]
9 139.999802 0.000000 -0.000060 3.795846 -1.852900 -8.252438 139.999802
10 139.999802 0.000000 -0.000060 3.247668 -7.576879 -3.704769 139.999802
[Rope2_Seg05]
9 139.999985 -0.000060 0.000119 5.745534 -2.341882 -11.586209 139.999985
10 139.999985 -0.000060 0.000119 -0.279466 -5.772119 2.922875 139.999985
[Rope2_Seg06]
9 139.999893 -0.000030 -0.000119 -1.552993 -2.958548 4.783100 139.999893
10 139.999893 -0.000030 -0.000119 -4.440138 -9.228054 27.480865 139.999893
[Rope2_Seg07]
9 139.999893 0.000060 -0.000060 -7.512495 -5.282219 35.473488 139.999893
10 139.999893 0.000060 -0.000060 6.279163 -14.237688 40.836357 139.999893
[Rope2_Seg09]
9 121.338966 0.000089 -0.000060 33.793236 -1.359788 -0.847141 121.338966
10 121.338966 0.000089 -0.000060 33.793236 -1.359788 -0.847141 121.338966
[R_mid_hand01]
9 104.680779 11.144459 -10.335981 -33.085678 36.191685 44.913235 105.778534
10 104.680779 11.144459 -10.335981 -34.826851 34.540035 41.908733 105.778534
[R_mid_hand02]
9 104.070427 2.443552 8.231699 67.611237 -49.370296 17.897308 104.424065
10 104.070427 2.443552 8.231699 68.824310 -46.622631 16.260359 104.424065
[R_mid_hand03]
9 106.028137 -11.221827 -5.996406 -171.571182 13.427420 -54.737041 106.788818
10 106.028137 -11.221827 -5.996406 -170.883774 12.973572 -51.735531 106.788818
[spine02]
9 129.756927 0.001550 0.000119 0.528435 -4.025138 -15.324450 129.756927
10 129.756927 0.001550 0.000119 0.527556 -4.025254 -15.299457 129.756927
[spine03]
9 78.614105 0.081482 -4.899009 1.998062 3.782944 17.977171 78.766647
10 78.614113 0.081463 -4.899009 1.992507 3.784066 17.956959 78.766655
[pelvis]
9 169.435242 0.051022 0.000000 -0.070122 -0.177818 17.133112 169.435257
10 169.435242 0.051022 0.000000 -0.070068 -0.177840 17.098103 169.435257
[null_rope03_connect]
9 -1.257226 -2.466202 137.391083 -18.033974 -81.508766 69.238670 137.418976
10 -1.257226 -2.466202 137.391083 -18.173344 -81.185776 69.315895 137.418976
[null_rope04_connect]
9 -1.259640 -2.480268 -137.844437 -18.033974 -81.508766 69.238670 137.872513
10 -1.259640 -2.480268 -137.844437 -18.173344 -81.185776 69.315895 137.872513
[Rope3_Seg01]
9 0.000010 0.000025 -0.000102 -141.542114 60.227802 -81.152306 0.000105
10 0.000010 0.000024 -0.000095 -134.252304 58.803837 -72.911491 0.000099
[Rope3_Seg02]
9 139.999924 -0.000119 0.000060 -1.185519 -3.711913 2.118583 139.999924
10 139.999924 -0.000119 0.000060 -0.912955 -2.691924 3.536177 139.999924
[Rope3_Seg03]
9 139.999924 -0.000119 0.000119 -1.264905 -4.065855 2.214396 139.999924
10 139.999924 -0.000119 0.000119 -1.164641 -3.027703 3.857698 139.999924
[Rope3_Seg04]
9 139.999924 0.000119 0.000000 -1.561180 -5.578291 1.989292 139.999924
10 139.999924 0.000119 0.000000 -1.788610 -4.175618 4.542422 139.999924
[Rope3_Seg05]
9 139.999924 -0.000238 0.000060 -1.381868 -6.868912 1.585990 139.999924
10 139.999924 -0.000238 0.000060 -2.257230 -5.461213 5.063142 139.999924
[Rope3_Seg06]
9 139.999893 -0.000119 -0.000060 -0.180660 -1.017387 3.258098 139.999893
10 139.999893 -0.000119 -0.000060 -0.469395 -1.148472 3.063341 139.999893
[Rope3_Seg07]
9 139.999771 0.000060 -0.000119 1.108780 5.143214 5.663077 139.999771
10 139.999771 0.000060 -0.000119 1.405671 3.723730 1.477563 139.999771
[Rope3_Seg08]
9 139.999985 -0.000060 0.000000 0.719738 3.304239 4.635055 139.999985
10 139.999985 -0.000060 0.000000 1.009018 2.424785 1.779266 139.999985
[Rope3_Seg09]
9 90.185997 -0.000179 -0.000060 89.793228 -1.359877 -0.847183 90.185997
10 90.185997 -0.000179 -0.000060 89.793228 -1.359877 -0.847183 90.185997
[R_rear_hand01]
9 103.366196 -6.073594 -10.757982 -166.818863 21.039259 -46.280437 104.101845
10 103.366196 -6.073594 -10.757982 -165.718872 20.328495 -43.170486 104.101845
[R_rear_hand02]
9 100.509819 12.039542 -7.992327 -28.339693 27.613867 43.697418 101.543350
10 100.509819 12.039542 -7.992327 -29.668055 26.160351 40.761948 101.543350
[R_rear_hand03]
9 101.539970 5.215704 5.435467 81.685280 -46.725758 9.939896 101.819031
10 101.539970 5.215704 5.435467 82.115250 -43.756126 9.334551 101.819031
[Rope4_Seg01]
9 -0.000016 -0.000025 -0.000305 65.593201 44.914120 -84.753479 0.000307
10 -0.000015 -0.000024 -0.000324 57.760334 44.309475 -95.832535 0.000325
[Rope4_Seg02]
9 139.999985 0.000060 0.000119 6.489317 2.909067 -19.447603 139.999985
10 139.999985 0.000060 0.000119 4.172504 9.121343 -16.300728 139.999985
[Rope4_Seg03]
9 139.999924 0.000000 -0.000238 2.351074 -0.974274 -10.008887 139.999924
10 139.999924 0.000000 -0.000238 2.365024 2.481532 -8.604264 139.999924
[Rope4_Seg04]
9 139.999985 0.000000 0.000119 1.065387 -2.198842 -6.874207 139.999985
10 139.999985 0.000000 0.000119 1.388795 0.280737 -5.858578 139.999985
[Rope4_Seg05]
9 139.999802 -0.000060 -0.000119 0.245159 0.884469 -1.134009 139.999802
10 139.999802 -0.000060 -0.000119 0.391999 1.349954 -0.874126 139.999802
[Rope4_Seg06]
9 139.999924 0.000000 0.000060 0.110407 3.438037 1.974343 139.999924
10 139.999924 0.000000 0.000060 0.000406 2.846123 1.941069 139.999924
[Rope4_Seg07]
9 139.999802 0.000000 0.000000 -0.196512 9.258965 7.612838 139.999802
10 139.999802 0.000000 0.000000 -0.893844 6.699789 6.993843 139.999802
[Rope4_Seg08]
9 139.999924 0.000000 0.000119 -2.654522 10.369257 8.417107 139.999924
10 139.999924 0.000000 0.000119 -3.246759 7.247536 7.277330 139.999924
[Rope4_Seg09]
9 90.185791 0.000060 0.000060 -135.617828 2.228885 0.850567 90.185791
10 90.185791 0.000060 0.000060 -135.617828 2.228885 0.850567 90.185791
[L_rear_hand01]
9 101.696655 -8.392275 -7.654577 -30.719049 -24.879362 141.681381 102.329041
10 101.696655 -8.392275 -7.654577 -29.575453 -26.270130 139.027267 102.329041
[L_rear_hand02]
9 102.726799 -1.568258 5.773216 82.428497 41.230484 171.131027 102.900848
10 102.726799 -1.568258 5.773216 82.088585 43.973633 170.624878 102.900848
[L_rear_hand03]
9 104.552910 9.721220 -10.420293 -164.822937 -19.676035 -139.457687 105.519653
10 104.552910 9.721220 -10.420293 -165.800003 -20.376877 -136.601624 105.519653
